<svg width="16" height="18" viewBox="0 0 16 18" fill="none" xmlns="http://www.w3.org/2000/svg">
<rect x="1" y="1.9873" width="14" height="13.9852" fill="#AAAAAA" stroke="black"/>
<rect x="1" y="1.9873" width="14" height="3.99577" fill="black"/>
<path d="M4.94 9.38837C4.94 9.54171 4.92667 9.67504 4.9 9.78837H5.2C5.22667 9.89504 5.24 10.0284 5.24 10.1884C5.24 10.3417 5.22667 10.475 5.2 10.5884C5.22667 10.695 5.24 10.8284 5.24 10.9884C5.24 11.1417 5.22667 11.275 5.2 11.3884C5.22667 11.495 5.24 11.6284 5.24 11.7884C5.24 11.9417 5.22667 12.075 5.2 12.1884C5.22667 12.295 5.24 12.4284 5.24 12.5884C5.24 12.7417 5.22667 12.875 5.2 12.9884H4.4C4.37333 12.875 4.36 12.7417 4.36 12.5884C4.36 12.4284 4.37333 12.295 4.4 12.1884C4.37333 12.075 4.36 11.9417 4.36 11.7884C4.36 11.6284 4.37333 11.495 4.4 11.3884C4.37333 11.275 4.36 11.1417 4.36 10.9884C4.36 10.8284 4.37333 10.695 4.4 10.5884C4.37333 10.475 4.36 10.3417 4.36 10.1884C4.36 10.0284 4.37333 9.89504 4.4 9.78837C4.37333 9.67504 4.36 9.54171 4.36 9.38837C4.36 9.22837 4.37333 9.09504 4.4 8.98837H4.9C4.92667 9.09504 4.94 9.22837 4.94 9.38837ZM6.04 9.38837C6.04 9.54171 6.02667 9.67504 6 9.78837H6.3C6.32667 9.89504 6.34 10.0284 6.34 10.1884C6.34 10.3417 6.32667 10.475 6.3 10.5884C6.32667 10.695 6.34 10.8284 6.34 10.9884C6.34 11.1417 6.32667 11.275 6.3 11.3884C6.32667 11.495 6.34 11.6284 6.34 11.7884C6.34 11.9417 6.32667 12.075 6.3 12.1884C6.32667 12.295 6.34 12.4284 6.34 12.5884C6.34 12.7417 6.32667 12.875 6.3 12.9884H5.7C5.67333 12.875 5.66 12.7417 5.66 12.5884C5.66 12.4284 5.67333 12.295 5.7 12.1884C5.67333 12.075 5.66 11.9417 5.66 11.7884C5.66 11.6284 5.67333 11.495 5.7 11.3884C5.67333 11.275 5.66 11.1417 5.66 10.9884C5.66 10.8284 5.67333 10.695 5.7 10.5884C5.67333 10.475 5.66 10.3417 5.66 10.1884C5.66 10.0284 5.67333 9.89504 5.7 9.78837H5.2C5.17333 9.67504 5.16 9.54171 5.16 9.38837C5.16 9.22837 5.17333 9.09504 5.2 8.98837H6C6.02667 9.09504 6.04 9.22837 6.04 9.38837ZM7.6 10.5884C7.62667 10.695 7.64 10.8284 7.64 10.9884C7.64 11.1417 7.62667 11.275 7.6 11.3884C7.62667 11.495 7.64 11.6284 7.64 11.7884C7.64 11.9417 7.62667 12.075 7.6 12.1884C7.62667 12.295 7.64 12.4284 7.64 12.5884C7.64 12.7417 7.62667 12.875 7.6 12.9884H6.8C6.77333 12.875 6.76 12.7417 6.76 12.5884C6.76 12.4284 6.77333 12.295 6.8 12.1884C6.77333 12.075 6.76 11.9417 6.76 11.7884C6.76 11.6284 6.77333 11.495 6.8 11.3884C6.77333 11.275 6.76 11.1417 6.76 10.9884C6.76 10.8284 6.77333 10.695 6.8 10.5884C6.77333 10.475 6.76 10.3417 6.76 10.1884C6.76 10.0284 6.77333 9.89504 6.8 9.78837H6.3C6.27333 9.67504 6.26 9.54171 6.26 9.38837C6.26 9.22837 6.27333 9.09504 6.3 8.98837H7.2C7.22667 9.09504 7.24 9.22837 7.24 9.38837C7.24 9.54171 7.22667 9.67504 7.2 9.78837H7.6C7.62667 9.89504 7.64 10.0284 7.64 10.1884C7.64 10.3417 7.62667 10.475 7.6 10.5884ZM12.1439 10.9884C12.1439 11.1417 12.1306 11.275 12.1039 11.3884H11.7039C11.7306 11.495 11.7439 11.6284 11.7439 11.7884C11.7439 11.9417 11.7306 12.075 11.7039 12.1884H11.3039C11.3306 12.295 11.3439 12.4284 11.3439 12.5884C11.3439 12.7417 11.3306 12.875 11.3039 12.9884H9.70391C9.73057 13.095 9.74391 13.2284 9.74391 13.3884C9.74391 13.5417 9.73057 13.675 9.70391 13.7884C9.73057 13.895 9.74391 14.0284 9.74391 14.1884C9.74391 14.3417 9.73057 14.475 9.70391 14.5884H8.90391C8.87724 14.475 8.86391 14.3417 8.86391 14.1884C8.86391 14.0284 8.87724 13.895 8.90391 13.7884C8.87724 13.675 8.86391 13.5417 8.86391 13.3884C8.86391 13.2284 8.87724 13.095 8.90391 12.9884C8.87724 12.875 8.86391 12.7417 8.86391 12.5884C8.86391 12.4284 8.87724 12.295 8.90391 12.1884C8.87724 12.075 8.86391 11.9417 8.86391 11.7884C8.86391 11.6284 8.87724 11.495 8.90391 11.3884C8.87724 11.275 8.86391 11.1417 8.86391 10.9884C8.86391 10.8284 8.87724 10.695 8.90391 10.5884C8.87724 10.475 8.86391 10.3417 8.86391 10.1884C8.86391 10.0284 8.87724 9.89504 8.90391 9.78837C8.87724 9.67504 8.86391 9.54171 8.86391 9.38837C8.86391 9.22837 8.87724 9.09504 8.90391 8.98837H9.70391C9.73057 9.09504 9.74391 9.22837 9.74391 9.38837C9.74391 9.54171 9.73057 9.67504 9.70391 9.78837H10.1039C10.1306 9.89504 10.1439 10.0284 10.1439 10.1884C10.1439 10.3417 10.1306 10.475 10.1039 10.5884H9.70391C9.73057 10.695 9.74391 10.8284 9.74391 10.9884C9.74391 11.1417 9.73057 11.275 9.70391 11.3884C9.73057 11.495 9.74391 11.6284 9.74391 11.7884C9.74391 11.9417 9.73057 12.075 9.70391 12.1884H10.9039C10.8772 12.075 10.8639 11.9417 10.8639 11.7884C10.8639 11.6284 10.8772 11.495 10.9039 11.3884H11.3039C11.2772 11.275 11.2639 11.1417 11.2639 10.9884C11.2639 10.8284 11.2772 10.695 11.3039 10.5884H10.9039C10.8772 10.475 10.8639 10.3417 10.8639 10.1884C10.8639 10.0284 10.8772 9.89504 10.9039 9.78837H10.1039C10.0772 9.67504 10.0639 9.54171 10.0639 9.38837C10.0639 9.22837 10.0772 9.09504 10.1039 8.98837H11.3039C11.3306 9.09504 11.3439 9.22837 11.3439 9.38837C11.3439 9.54171 11.3306 9.67504 11.3039 9.78837H11.7039C11.7306 9.89504 11.7439 10.0284 11.7439 10.1884C11.7439 10.3417 11.7306 10.475 11.7039 10.5884H12.1039C12.1306 10.695 12.1439 10.8284 12.1439 10.9884Z" fill="black"/>
</svg>
